<svg width="30" height="30" viewBox="0 0 30 30" fill="none" xmlns="http://www.w3.org/2000/svg">
  <path d="M22.9688 15C22.9688 16.5761 22.5014 18.1167 21.6258 19.4272C20.7502 20.7377 19.5056 21.759 18.0495 22.3622C16.5934 22.9653 14.9912 23.1231 13.4454 22.8156C11.8996 22.5082 10.4797 21.7492 9.36524 20.6348C8.25079 19.5203 7.49184 18.1004 7.18437 16.5546C6.87689 15.0088 7.0347 13.4066 7.63784 11.9505C8.24097 10.4944 9.26235 9.24984 10.5728 8.37423C11.8833 7.49861 13.4239 7.03125 15 7.03125C17.1125 7.03435 19.1376 7.87491 20.6313 9.36867C22.1251 10.8624 22.9657 12.8875 22.9688 15ZM15 5.15625C15.2486 5.15625 15.4871 5.05748 15.6629 4.88166C15.8387 4.70585 15.9375 4.46739 15.9375 4.21875V1.875C15.9375 1.62636 15.8387 1.3879 15.6629 1.21209C15.4871 1.03627 15.2486 0.9375 15 0.9375C14.7514 0.9375 14.5129 1.03627 14.3371 1.21209C14.1613 1.3879 14.0625 1.62636 14.0625 1.875V4.21875C14.0625 4.46739 14.1613 4.70585 14.3371 4.88166C14.5129 5.05748 14.7514 5.15625 15 5.15625ZM6.71484 8.03906C6.89207 8.21158 7.12963 8.30811 7.37695 8.30811C7.62428 8.30811 7.86184 8.21158 8.03906 8.03906C8.21439 7.86331 8.31285 7.6252 8.31285 7.37695C8.31285 7.12871 8.21439 6.89059 8.03906 6.71484L6.38672 5.05078C6.30266 4.94836 6.19809 4.86467 6.07974 4.8051C5.96139 4.74554 5.83188 4.7114 5.69954 4.7049C5.5672 4.6984 5.43497 4.71968 5.31135 4.76737C5.18774 4.81505 5.07547 4.88809 4.98178 4.98178C4.88809 5.07547 4.81505 5.18774 4.76737 5.31135C4.71968 5.43497 4.6984 5.5672 4.7049 5.69954C4.7114 5.83188 4.74554 5.96139 4.8051 6.07974C4.86467 6.19809 4.94836 6.30266 5.05078 6.38672L6.71484 8.03906ZM5.15625 15C5.15625 14.7514 5.05748 14.5129 4.88166 14.3371C4.70585 14.1613 4.46739 14.0625 4.21875 14.0625H1.875C1.62636 14.0625 1.3879 14.1613 1.21209 14.3371C1.03627 14.5129 0.9375 14.7514 0.9375 15C0.9375 15.2486 1.03627 15.4871 1.21209 15.6629C1.3879 15.8387 1.62636 15.9375 1.875 15.9375H4.21875C4.46739 15.9375 4.70585 15.8387 4.88166 15.6629C5.05748 15.4871 5.15625 15.2486 5.15625 15ZM6.71484 21.9609L5.05078 23.6133C4.87474 23.791 4.77598 24.0311 4.77598 24.2812C4.77598 24.5314 4.87474 24.7715 5.05078 24.9492C5.23202 25.1192 5.47027 25.2154 5.71875 25.2188C5.96769 25.2177 6.20676 25.1212 6.38672 24.9492L8.03906 23.2852C8.20065 23.1068 8.28747 22.8732 8.28155 22.6326C8.27562 22.392 8.17741 22.1629 8.00724 21.9928C7.83707 21.8226 7.60799 21.7244 7.3674 21.7185C7.12682 21.7125 6.89318 21.7994 6.71484 21.9609ZM15 24.8438C14.7514 24.8438 14.5129 24.9425 14.3371 25.1183C14.1613 25.2942 14.0625 25.5326 14.0625 25.7812V28.125C14.0625 28.3736 14.1613 28.6121 14.3371 28.7879C14.5129 28.9637 14.7514 29.0625 15 29.0625C15.2486 29.0625 15.4871 28.9637 15.6629 28.7879C15.8387 28.6121 15.9375 28.3736 15.9375 28.125V25.7812C15.9375 25.5326 15.8387 25.2942 15.6629 25.1183C15.4871 24.9425 15.2486 24.8438 15 24.8438ZM23.2852 21.9609C23.1068 21.7994 22.8732 21.7125 22.6326 21.7185C22.392 21.7244 22.1629 21.8226 21.9928 21.9928C21.8226 22.1629 21.7244 22.392 21.7185 22.6326C21.7125 22.8732 21.7994 23.1068 21.9609 23.2852L23.6133 24.9492C23.7932 25.1212 24.0323 25.2177 24.2812 25.2188C24.5297 25.2154 24.768 25.1192 24.9492 24.9492C25.1253 24.7715 25.224 24.5314 25.224 24.2812C25.224 24.0311 25.1253 23.791 24.9492 23.6133L23.2852 21.9609ZM28.125 14.0625H25.7812C25.5326 14.0625 25.2942 14.1613 25.1183 14.3371C24.9425 14.5129 24.8438 14.7514 24.8438 15C24.8438 15.2486 24.9425 15.4871 25.1183 15.6629C25.2942 15.8387 25.5326 15.9375 25.7812 15.9375H28.125C28.3736 15.9375 28.6121 15.8387 28.7879 15.6629C28.9637 15.4871 29.0625 15.2486 29.0625 15C29.0625 14.7514 28.9637 14.5129 28.7879 14.3371C28.6121 14.1613 28.3736 14.0625 28.125 14.0625ZM22.6289 8.30859C22.7507 8.30967 22.8715 8.28638 22.9842 8.24009C23.0969 8.19381 23.1993 8.12546 23.2852 8.03906L24.9492 6.38672C25.0987 6.20457 25.1751 5.97332 25.1636 5.73796C25.152 5.5026 25.0533 5.27995 24.8867 5.11332C24.7201 4.9467 24.4974 4.848 24.262 4.83645C24.0267 4.82489 23.7954 4.90128 23.6133 5.05078L21.9609 6.71484C21.7856 6.89059 21.6872 7.12871 21.6872 7.37695C21.6872 7.6252 21.7856 7.86331 21.9609 8.03906C22.0482 8.12689 22.1524 8.19607 22.2673 8.2424C22.3821 8.28873 22.5051 8.31125 22.6289 8.30859Z" fill="#E3C10D"/>
</svg>
