<svg width="45" height="45" viewBox="0 0 45 45" fill="none" xmlns="http://www.w3.org/2000/svg">
<path d="M22.5 45C34.9264 45 45 34.9264 45 22.5C45 10.0736 34.9264 0 22.5 0C10.0736 0 0 10.0736 0 22.5C0 34.9264 10.0736 45 22.5 45Z" fill="#34AADF"/>
<path d="M9.64507 22.0072C9.64507 22.0072 20.7904 17.2656 24.6558 15.5959C26.1376 14.9281 31.1627 12.791 31.1627 12.791C31.1627 12.791 33.482 11.8561 33.2887 14.1267C33.2242 15.0617 32.7088 18.334 32.1935 21.8736C31.4203 26.8824 30.5828 32.3587 30.5828 32.3587C30.5828 32.3587 30.454 33.8947 29.3588 34.1619C28.2636 34.429 26.4597 33.2269 26.1376 32.9597C25.8798 32.7594 21.3058 29.7541 19.6308 28.2849C19.1798 27.8842 18.6644 27.0828 19.6951 26.1478C22.0145 23.9439 24.7847 21.2058 26.4597 19.4694C27.2328 18.668 28.0058 16.7981 24.7847 19.0687C20.2106 22.3411 15.7009 25.4132 15.7009 25.4132C15.7009 25.4132 14.6701 26.081 12.7374 25.4799C10.8046 24.8789 8.54979 24.0775 8.54979 24.0775C8.54979 24.0775 7.00371 23.0757 9.64507 22.0072Z" fill="white"/>
</svg>
