<svg width="58" height="38" viewBox="0 0 58 38" fill="none" xmlns="http://www.w3.org/2000/svg">
<g filter="url(#filter0_d_112_3820)">
<path d="M41.0597 18.96H39.7397V20.64H41.0597V18.96Z" fill="black"/>
<path d="M41.1197 20.7H39.6797V18.9H41.1197V20.7ZM39.7997 20.58H40.9997V19.02H39.7997V20.58Z" fill="black"/>
<path d="M42.38 31.44C39.668 31.44 37.46 29.232 37.46 26.52C37.46 23.808 39.668 21.6 42.38 21.6C45.092 21.6 47.3 23.808 47.3 26.52C47.3 29.232 45.092 31.44 42.38 31.44ZM42.38 22.8C40.328 22.8 38.66 24.468 38.66 26.52C38.66 28.572 40.328 30.24 42.38 30.24C44.432 30.24 46.1 28.572 46.1 26.52C46.1 24.468 44.432 22.8 42.38 22.8Z" fill="black"/>
<path d="M42.3796 28.8C41.1196 28.8 40.0996 27.78 40.0996 26.52C40.0996 25.26 41.1196 24.24 42.3796 24.24C43.6396 24.24 44.6596 25.26 44.6596 26.52C44.6596 27.78 43.6396 28.8 42.3796 28.8ZM42.3796 24.84C41.4556 24.84 40.6996 25.596 40.6996 26.52C40.6996 27.444 41.4556 28.2 42.3796 28.2C43.3036 28.2 44.0596 27.444 44.0596 26.52C44.0596 25.596 43.3036 24.84 42.3796 24.84Z" fill="black"/>
<path d="M15.6558 31.536C12.9438 31.536 10.7358 29.328 10.7358 26.616C10.7358 23.904 12.9438 21.696 15.6558 21.696C18.3678 21.696 20.5758 23.904 20.5758 26.616C20.5758 29.328 18.3678 31.536 15.6558 31.536ZM15.6558 22.896C13.6038 22.896 11.9358 24.564 11.9358 26.616C11.9358 28.668 13.6038 30.336 15.6558 30.336C17.7078 30.336 19.3758 28.668 19.3758 26.616C19.3758 24.564 17.6958 22.896 15.6558 22.896Z" fill="black"/>
<path d="M15.656 28.896C14.396 28.896 13.376 27.876 13.376 26.616C13.376 25.356 14.396 24.336 15.656 24.336C16.916 24.336 17.936 25.356 17.936 26.616C17.936 27.876 16.904 28.896 15.656 28.896ZM15.656 24.936C14.732 24.936 13.976 25.692 13.976 26.616C13.976 27.54 14.732 28.296 15.656 28.296C16.58 28.296 17.336 27.54 17.336 26.616C17.336 25.692 16.58 24.936 15.656 24.936Z" fill="black"/>
<path d="M46.8437 19.32C46.6757 19.32 46.4957 19.296 46.2917 19.248L46.2677 19.236C46.2557 19.236 44.7557 18.792 43.2677 18.276C40.2317 17.22 39.9557 16.824 39.9197 16.416C39.8597 15.732 39.9197 13.224 39.9197 13.116V13.056C40.0157 12.408 40.4357 11.988 41.0957 11.88L41.1317 11.868H46.1597C46.2917 11.868 46.4957 11.916 46.7117 12.12C47.5277 12.936 48.2117 16.344 48.1997 18.048V18.096L48.1877 18.144C48.1037 18.576 47.8997 18.9 47.5997 19.092C47.3837 19.248 47.1317 19.32 46.8437 19.32ZM46.5197 18.312C46.7837 18.372 46.9757 18.36 47.0837 18.3C47.1557 18.252 47.2037 18.156 47.2397 18C47.2397 17.16 47.0597 15.96 46.7957 14.844C46.5077 13.656 46.2077 13.008 46.0637 12.828H41.2277C41.0117 12.876 40.9157 12.972 40.8797 13.176C40.8677 13.872 40.8317 15.588 40.8677 16.212C41.3357 16.608 43.7957 17.52 46.5197 18.312Z" fill="black"/>
<path d="M35.4196 21.6H34.4596V20.28H31.0996V21.6H30.1396V19.32H35.4196V21.6Z" fill="black"/>
<path d="M34.4598 19.68H33.2598V3.59999H18.1518C17.7078 3.87599 16.2798 5.01599 15.9798 5.42399V7.19999H17.8998V9.59999H16.6998V8.39999H14.7798V5.21999L14.7918 5.15999C14.8278 4.97999 14.8998 4.64399 16.2558 3.52799C17.0958 2.83199 17.6478 2.45999 17.8998 2.41199L17.9598 2.39999H34.4598V19.68Z" fill="black"/>
<path d="M23.0599 10.32H21.8599V17.76H23.0599V10.32Z" fill="black"/>
<path d="M8.17998 10.44H6.97998V17.88H8.17998V10.44Z" fill="black"/>
<path d="M23.8998 9.60001H6.25977V10.8H23.8998V9.60001Z" fill="black"/>
<path d="M8.89988 17.88H6.37988V19.08H8.89988V17.88Z" fill="black"/>
<path d="M23.7798 17.76H21.2598V18.96H23.7798V17.76Z" fill="black"/>
<path d="M32.4196 19.56H31.2196V6.24001H15.9796V8.40001H14.2996V9.96001H13.0996V7.20001H14.7796V5.04001H32.4196V19.56Z" fill="black"/>
<path d="M53.1798 26.16H46.8198V24.96H51.9798V23.76H48.4398V22.56H53.1798V26.16Z" fill="black"/>
<path d="M38.4199 25.08H19.9399V26.28H38.4199V25.08Z" fill="black"/>
<path d="M11.0598 25.788L4.81982 24.492V21.36L36.7398 21.24V25.56H35.5398V22.44L6.01982 22.56V23.508L11.2998 24.612L11.0598 25.788Z" fill="black"/>
<path d="M37.6996 26.16H36.1396V11.82C36.2476 10.824 36.9676 9.98399 38.2636 9.31199L38.3956 9.23999H47.4676L47.5156 9.25199C48.4996 9.41999 49.4116 11.232 50.2156 14.652C50.8636 17.388 51.2117 20.352 51.1637 22.572H53.1796V25.932H46.9396V24.732H51.9796V23.772H49.9037L49.9396 23.136C50.0716 21.048 49.7476 18 49.0996 15.18C48.3796 12.012 47.5996 10.656 47.3116 10.452H38.6837C37.8556 10.896 37.4116 11.4 37.3396 11.928V24.96H37.6996V26.16Z" fill="black"/>
</g>
<defs>
<filter id="filter0_d_112_3820" x="0.819824" y="0.399994" width="56.3599" height="37.136" filterUnits="userSpaceOnUse" color-interpolation-filters="sRGB">
<feFlood flood-opacity="0" result="BackgroundImageFix"/>
<feColorMatrix in="SourceAlpha" type="matrix" values="0 0 0 0 0 0 0 0 0 0 0 0 0 0 0 0 0 0 127 0" result="hardAlpha"/>
<feOffset dy="2"/>
<feGaussianBlur stdDeviation="2"/>
<feComposite in2="hardAlpha" operator="out"/>
<feColorMatrix type="matrix" values="0 0 0 0 0 0 0 0 0 0 0 0 0 0 0 0 0 0 0.25 0"/>
<feBlend mode="normal" in2="BackgroundImageFix" result="effect1_dropShadow_112_3820"/>
<feBlend mode="normal" in="SourceGraphic" in2="effect1_dropShadow_112_3820" result="shape"/>
</filter>
</defs>
</svg>
