<svg width="58" height="40" viewBox="0 0 58 40" fill="none" xmlns="http://www.w3.org/2000/svg">
<g filter="url(#filter0_d_88_590)">
<path d="M9.49979 32.04H5.77979V33.6H9.49979V32.04Z" fill="white"/>
<path d="M52.46 32.04H10.46V33.6H52.46V32.04Z" fill="white"/>
<path d="M41.0597 18.9601H39.7397V20.6401H41.0597V18.9601Z" fill="white"/>
<path d="M41.1197 20.7H39.6797V18.9H41.1197V20.7ZM39.7997 20.58H40.9997V19.02H39.7997V20.58Z" fill="white"/>
<path d="M42.38 31.44C39.668 31.44 37.46 29.232 37.46 26.52C37.46 23.808 39.668 21.6 42.38 21.6C45.092 21.6 47.3 23.808 47.3 26.52C47.3 29.232 45.092 31.44 42.38 31.44ZM42.38 22.8C40.328 22.8 38.66 24.468 38.66 26.52C38.66 28.572 40.328 30.24 42.38 30.24C44.432 30.24 46.1 28.572 46.1 26.52C46.1 24.468 44.432 22.8 42.38 22.8Z" fill="white"/>
<path d="M42.3796 28.8C41.1196 28.8 40.0996 27.78 40.0996 26.52C40.0996 25.26 41.1196 24.24 42.3796 24.24C43.6396 24.24 44.6596 25.26 44.6596 26.52C44.6596 27.78 43.6396 28.8 42.3796 28.8ZM42.3796 24.84C41.4556 24.84 40.6996 25.596 40.6996 26.52C40.6996 27.444 41.4556 28.2 42.3796 28.2C43.3036 28.2 44.0596 27.444 44.0596 26.52C44.0596 25.596 43.3036 24.84 42.3796 24.84Z" fill="white"/>
<path d="M15.6558 31.5359C12.9438 31.5359 10.7358 29.3279 10.7358 26.6159C10.7358 23.9039 12.9438 21.6959 15.6558 21.6959C18.3678 21.6959 20.5758 23.9039 20.5758 26.6159C20.5758 29.3279 18.3678 31.5359 15.6558 31.5359ZM15.6558 22.8959C13.6038 22.8959 11.9358 24.5639 11.9358 26.6159C11.9358 28.6679 13.6038 30.3359 15.6558 30.3359C17.7078 30.3359 19.3758 28.6679 19.3758 26.6159C19.3758 24.5639 17.6958 22.8959 15.6558 22.8959Z" fill="white"/>
<path d="M15.656 28.8959C14.396 28.8959 13.376 27.8759 13.376 26.6159C13.376 25.3559 14.396 24.3359 15.656 24.3359C16.916 24.3359 17.936 25.3559 17.936 26.6159C17.936 27.8759 16.904 28.8959 15.656 28.8959ZM15.656 24.9359C14.732 24.9359 13.976 25.6919 13.976 26.6159C13.976 27.5399 14.732 28.2959 15.656 28.2959C16.58 28.2959 17.336 27.5399 17.336 26.6159C17.336 25.6919 16.58 24.9359 15.656 24.9359Z" fill="white"/>
<path d="M46.8437 19.32C46.6757 19.32 46.4957 19.296 46.2917 19.248L46.2677 19.236C46.2557 19.236 44.7557 18.792 43.2677 18.276C40.2317 17.22 39.9557 16.824 39.9197 16.416C39.8597 15.732 39.9197 13.224 39.9197 13.116V13.056C40.0157 12.408 40.4357 11.988 41.0957 11.88L41.1317 11.868H46.1597C46.2917 11.868 46.4957 11.916 46.7117 12.12C47.5277 12.936 48.2117 16.344 48.1997 18.048V18.096L48.1877 18.144C48.1037 18.576 47.8997 18.9 47.5997 19.092C47.3837 19.248 47.1317 19.32 46.8437 19.32ZM46.5197 18.312C46.7837 18.372 46.9757 18.36 47.0837 18.3C47.1557 18.252 47.2037 18.156 47.2397 18C47.2397 17.16 47.0597 15.96 46.7957 14.844C46.5077 13.656 46.2077 13.008 46.0637 12.828H41.2277C41.0117 12.876 40.9157 12.972 40.8797 13.176C40.8677 13.872 40.8317 15.588 40.8677 16.212C41.3357 16.608 43.7957 17.52 46.5197 18.312Z" fill="white"/>
<path d="M35.4196 21.6001H34.4596V20.2801H31.0996V21.6001H30.1396V19.3201H35.4196V21.6001Z" fill="white"/>
<path d="M34.4598 19.68H33.2598V3.60002H18.1518C17.7078 3.87602 16.2798 5.01602 15.9798 5.42402V7.20002H17.8998V9.60002H16.6998V8.40002H14.7798V5.22002L14.7918 5.16002C14.8278 4.98002 14.8998 4.64402 16.2558 3.52802C17.0958 2.83202 17.6478 2.46002 17.8998 2.41202L17.9598 2.40002H34.4598V19.68Z" fill="white"/>
<path d="M23.0599 10.3201H21.8599V17.7601H23.0599V10.3201Z" fill="white"/>
<path d="M8.17998 10.4401H6.97998V17.8801H8.17998V10.4401Z" fill="white"/>
<path d="M23.8998 9.59998H6.25977V10.8H23.8998V9.59998Z" fill="white"/>
<path d="M8.89988 17.88H6.37988V19.08H8.89988V17.88Z" fill="white"/>
<path d="M23.7798 17.76H21.2598V18.96H23.7798V17.76Z" fill="white"/>
<path d="M32.4196 19.56H31.2196V6.24004H15.9796V8.40004H14.2996V9.96004H13.0996V7.20004H14.7796V5.04004H32.4196V19.56Z" fill="white"/>
<path d="M53.1798 26.1601H46.8198V24.9601H51.9798V23.7601H48.4398V22.5601H53.1798V26.1601Z" fill="white"/>
<path d="M38.4199 25.0801H19.9399V26.2801H38.4199V25.0801Z" fill="white"/>
<path d="M11.0598 25.788L4.81982 24.492V21.36L36.7398 21.24V25.56H35.5398V22.44L6.01982 22.56V23.508L11.2998 24.612L11.0598 25.788Z" fill="white"/>
<path d="M37.6996 26.16H36.1396V11.82C36.2476 10.824 36.9676 9.98399 38.2636 9.31199L38.3956 9.23999H47.4676L47.5156 9.25199C48.4996 9.41999 49.4116 11.232 50.2156 14.652C50.8636 17.388 51.2117 20.352 51.1637 22.572H53.1796V25.932H46.9396V24.732H51.9796V23.772H49.9037L49.9396 23.136C50.0716 21.048 49.7476 18 49.0996 15.18C48.3796 12.012 47.5996 10.656 47.3116 10.452H38.6837C37.8556 10.896 37.4116 11.4 37.3396 11.928V24.96H37.6996V26.16Z" fill="white"/>
</g>
<defs>
<filter id="filter0_d_88_590" x="0.819824" y="0.400024" width="56.3599" height="39.2001" filterUnits="userSpaceOnUse" color-interpolation-filters="sRGB">
<feFlood flood-opacity="0" result="BackgroundImageFix"/>
<feColorMatrix in="SourceAlpha" type="matrix" values="0 0 0 0 0 0 0 0 0 0 0 0 0 0 0 0 0 0 127 0" result="hardAlpha"/>
<feOffset dy="2"/>
<feGaussianBlur stdDeviation="2"/>
<feComposite in2="hardAlpha" operator="out"/>
<feColorMatrix type="matrix" values="0 0 0 0 0 0 0 0 0 0 0 0 0 0 0 0 0 0 0.25 0"/>
<feBlend mode="normal" in2="BackgroundImageFix" result="effect1_dropShadow_88_590"/>
<feBlend mode="normal" in="SourceGraphic" in2="effect1_dropShadow_88_590" result="shape"/>
</filter>
</defs>
</svg>
