<svg width="45" height="45" viewBox="0 0 45 45" fill="none" xmlns="http://www.w3.org/2000/svg">
<path d="M10.8882 40.6196C10.8882 39.8666 10.8882 39.1136 10.8882 38.3606C10.894 38.3298 10.8928 38.2983 10.8848 38.2679C10.8769 38.2376 10.8623 38.209 10.8419 38.1841C10.8216 38.1592 10.7959 38.1384 10.7665 38.1231C10.7372 38.1077 10.7047 38.0981 10.6712 38.0948C8.65584 37.5646 6.79571 36.62 5.22941 35.3315C4.08819 34.3701 3.138 33.2307 2.42207 31.9651C1.41298 30.1369 0.74142 28.1652 0.435223 26.1318C0.0558452 23.581 -0.0759118 21.0038 0.0415332 18.4312C0.0672887 17.2319 0.133517 16.0461 0.280691 14.8467C0.515405 12.5676 1.13623 10.3369 2.12036 8.23657C3.33558 5.65417 5.54015 3.57983 8.30903 2.41348C10.1952 1.61416 12.1795 1.03062 14.2181 0.675752C16.2172 0.325083 18.2413 0.109853 20.2743 0.0317708C22.1068 -0.028242 23.9414 -0.00322373 25.7712 0.106732C28.3901 0.209102 30.9853 0.610802 33.4978 1.3027C35.3607 1.79998 37.1328 2.55222 38.7556 3.53448C40.3368 4.53968 41.6157 5.90105 42.4718 7.49037C43.4782 9.34663 44.1624 11.3382 44.4991 13.3918C44.7178 14.6111 44.8615 15.8408 44.9296 17.0751C45.0252 18.605 45.0142 20.1417 44.9516 21.6648C44.8891 23.1878 44.7493 24.6666 44.5469 26.159C44.2911 28.399 43.5476 30.5677 42.3614 32.5341C40.8173 35.0217 38.3439 36.9002 35.4074 37.8154C33.3995 38.4666 31.3263 38.93 29.2188 39.1988C27.6771 39.3964 26.1318 39.5395 24.5791 39.5974C23.3907 39.6486 22.2022 39.6349 21.0138 39.6179C20.3405 39.6179 19.6708 39.5566 19.0012 39.502C18.9355 39.4906 18.8675 39.4974 18.806 39.5216C18.7444 39.5459 18.692 39.5865 18.6553 39.6383C17.3013 41.1444 15.8958 42.6095 14.4793 44.0678C14.2213 44.3339 13.9225 44.5635 13.5926 44.7493C13.376 44.8809 13.129 44.9635 12.8716 44.9904C12.6142 45.0173 12.3536 44.9877 12.1108 44.9042C11.868 44.8206 11.6498 44.6853 11.4739 44.5092C11.2979 44.3332 11.1692 44.1213 11.098 43.8907C10.9578 43.4808 10.8882 43.053 10.8919 42.6231C10.8882 41.9485 10.8882 41.2841 10.8882 40.6196ZM12.5256 43.4784L12.6985 43.3284L15.7707 40.1699C16.953 38.9546 18.1341 37.7382 19.3139 36.5206C19.3719 36.4464 19.4502 36.3877 19.5407 36.3506C19.6312 36.3134 19.7307 36.2992 19.8291 36.3094C20.2301 36.3469 20.6312 36.3605 21.0359 36.3639C22.434 36.3639 23.8322 36.3639 25.2303 36.2719C26.4997 36.1799 27.7654 36.0368 29.0237 35.8528C30.3786 35.6344 31.7198 35.3489 33.0416 34.9976C35.9851 34.265 38.2626 32.6976 39.6938 30.1592C40.5388 28.5985 41.0688 26.908 41.2576 25.1709C41.4812 23.5336 41.6151 21.8869 41.6586 20.2371C41.7238 18.1646 41.571 16.0911 41.2024 14.046C40.9468 12.5643 40.4868 11.1192 39.8337 9.74601C39.0021 8.04235 37.8247 6.63173 36.0108 5.72538C33.2292 4.3352 30.2195 3.71507 27.1178 3.39819C26.2385 3.3096 25.3591 3.2619 24.4761 3.23123C22.668 3.14491 20.856 3.15401 19.049 3.25849C17.7495 3.3478 16.457 3.50938 15.1784 3.74233C13.298 4.05975 11.479 4.63389 9.78076 5.44598C8.79622 5.90668 7.903 6.51842 7.13899 7.25526C5.90077 8.53688 4.9925 10.0618 4.4825 11.7154C3.87749 13.6413 3.54723 15.6321 3.50012 17.6373C3.38173 19.6425 3.40878 21.6528 3.58106 23.6546C3.68825 24.846 3.90365 26.0268 4.22495 27.1846C4.703 28.9889 5.6304 30.6646 6.93295 32.0775C8.3392 33.519 10.1567 34.5632 12.176 35.0896C12.4299 35.1611 12.544 35.2429 12.544 35.5087C12.5219 36.49 12.544 37.4713 12.544 38.4526L12.5256 43.4784Z" fill="#754A91"/>
<path d="M9.95044 13.0447C9.92468 12.2985 10.3625 11.7567 10.8923 11.2694C11.5911 10.6495 12.361 10.1023 13.1883 9.63734C13.5655 9.4219 14.014 9.33982 14.4514 9.40617C14.8887 9.47253 15.2855 9.68287 15.5688 9.99852C16.5697 10.9728 17.4656 12.0353 18.2437 13.1707C18.629 13.6815 18.92 14.248 19.1047 14.8471C19.1785 15.0809 19.1833 15.3288 19.1186 15.5649C19.0538 15.801 18.922 16.0167 18.7367 16.1896C18.3123 16.5755 17.8599 16.9341 17.3827 17.2629C17.1423 17.4403 16.9635 17.6793 16.8687 17.9501C16.7738 18.221 16.767 18.5116 16.8492 18.786C17.1439 20.0742 17.8116 21.2638 18.7809 22.2274C19.9586 23.5588 21.4761 24.5976 23.1961 25.2496C23.6187 25.4509 24.103 25.5122 24.5685 25.4234C24.8234 25.359 25.05 25.2219 25.216 25.0316C25.4736 24.7283 25.7532 24.4353 25.985 24.1116C26.2857 23.7078 26.7447 23.4288 27.2643 23.3339C27.784 23.2391 28.323 23.336 28.7666 23.6039C30.0138 24.274 31.1913 25.0497 32.2841 25.9209C32.5416 26.1253 32.8102 26.3229 33.0678 26.5308C33.3725 26.746 33.5926 27.0479 33.6943 27.3901C33.796 27.7323 33.7736 28.0959 33.6307 28.4252C33.4034 28.979 33.072 29.4912 32.652 29.9381C32.13 30.6099 31.4651 31.1758 30.6983 31.6009C30.3317 31.8002 29.9198 31.9173 29.4955 31.9427C29.0713 31.9682 28.6465 31.9013 28.2552 31.7474C25.2783 30.6375 22.4968 29.1227 20.0024 27.2531C17.5626 25.3932 15.4305 23.212 13.6739 20.7792C12.1959 18.7653 11.02 16.5748 10.1786 14.2679C10.089 13.9889 10.0153 13.7057 9.9578 13.4195C9.94144 13.2951 9.93897 13.1695 9.95044 13.0447V13.0447Z" fill="#754A91"/>
<path d="M22.6537 9.41916C25.1443 9.4618 27.5398 10.3126 29.4224 11.8232C31.3051 13.3338 32.5556 15.4084 32.9558 17.6853C33.117 18.5131 33.2031 19.352 33.2134 20.1931C33.2134 20.3907 33.1582 20.5338 32.9301 20.5542C32.702 20.5747 32.6431 20.3941 32.6431 20.2135C32.6773 18.5122 32.3001 16.8253 31.5393 15.2763C30.8986 14.0036 29.9494 12.8849 28.7656 12.0073C27.5818 11.1297 26.1954 10.5169 24.7141 10.2165C23.9309 10.0486 23.1301 9.96171 22.3262 9.95752C22.2479 9.95876 22.1699 9.94958 22.0944 9.93026C22.0302 9.91348 21.9755 9.87427 21.9418 9.82088C21.9082 9.76749 21.8983 9.70409 21.9141 9.64404C21.9146 9.61556 21.9212 9.58745 21.9335 9.56135C21.9458 9.53524 21.9636 9.51167 21.9859 9.49201C22.0082 9.47235 22.0344 9.45699 22.0632 9.44682C22.0919 9.43665 22.1225 9.43188 22.1533 9.43279C22.3188 9.41235 22.4881 9.41916 22.6537 9.41916Z" fill="#754A91"/>
<path d="M29.7565 18.6597C29.7441 17.7131 29.4924 16.7823 29.0215 15.9421C28.5506 15.1019 27.8736 14.3755 27.0448 13.8213C26.0776 13.1921 24.9531 12.8016 23.7776 12.6867C23.5789 12.6628 23.3802 12.6526 23.1778 12.6322C22.9755 12.6117 22.854 12.5333 22.8724 12.3425C22.8908 12.1517 23.0196 12.0836 23.2404 12.0972C26.5003 12.2812 29.2745 13.9883 30.1281 17.1673C30.2842 17.7803 30.362 18.4081 30.3599 19.0379C30.3599 19.0958 30.3599 19.1537 30.3599 19.2083C30.3599 19.3786 30.2422 19.4911 30.0619 19.4877C30.0219 19.4864 29.9826 19.4776 29.9464 19.4619C29.9102 19.4461 29.8779 19.4236 29.8514 19.3959C29.8248 19.3681 29.8047 19.3357 29.7922 19.3005C29.7797 19.2653 29.775 19.2281 29.7786 19.1912C29.7491 19.0311 29.7565 18.8675 29.7565 18.6597Z" fill="#754A91"/>
<path d="M24.0448 14.8638C25.833 14.9762 27.0803 15.7872 27.4225 17.5488C27.464 17.7744 27.4935 18.0019 27.5108 18.2302C27.5108 18.4142 27.4666 18.571 27.2495 18.571C27.0325 18.571 26.9589 18.4347 26.9515 18.2302C26.9495 17.555 26.7248 16.8964 26.3076 16.3426C25.8692 15.841 25.2397 15.5142 24.5489 15.4294C24.3945 15.4027 24.2384 15.3845 24.0816 15.3749C23.8241 15.3749 23.6806 15.2556 23.7137 15.0716C23.7468 14.8877 23.9013 14.8536 24.0448 14.8638Z" fill="#754A91"/>
</svg>
