<svg width="45" height="45" viewBox="0 0 45 45" fill="none" xmlns="http://www.w3.org/2000/svg">
<g clip-path="url(#clip0_142_3834)">
<path fill-rule="evenodd" clip-rule="evenodd" d="M30.9134 25.3847C30.4737 25.031 29.959 24.782 29.4083 24.6568C28.8576 24.5315 28.2855 24.5333 27.7356 24.662C26.9094 25.0043 26.3755 26.2975 25.8416 26.9442C25.729 27.0992 25.5636 27.2079 25.3764 27.2499C25.1892 27.2919 24.993 27.2643 24.8247 27.1724C21.7999 25.9907 19.2644 23.8236 17.6302 21.0231C17.4908 20.8484 17.4248 20.6265 17.4461 20.4042C17.4675 20.1819 17.5745 19.9765 17.7446 19.8313C18.34 19.2433 18.7772 18.5151 19.0157 17.7139C19.0686 16.8302 18.8657 15.95 18.431 15.1782C18.0949 14.0961 17.4554 13.1326 16.5878 12.4015C16.1404 12.2008 15.6443 12.1335 15.1594 12.2077C14.6745 12.2819 14.2214 12.4946 13.8549 12.8199C13.2187 13.3674 12.7137 14.0503 12.3771 14.8183C12.0405 15.5863 11.881 16.4198 11.9101 17.2575C11.9121 17.7279 11.9719 18.1963 12.0881 18.6522C12.3832 19.7475 12.8372 20.794 13.4355 21.7585C13.8671 22.4973 14.3381 23.2126 14.8464 23.9012C16.4983 26.1631 18.5747 28.0836 20.9605 29.556C22.1577 30.3042 23.4372 30.9126 24.7739 31.3691C26.1623 31.9969 27.6953 32.2378 29.2101 32.0664C30.0731 31.9361 30.8908 31.5962 31.5913 31.0767C32.2917 30.5571 32.8533 29.8738 33.2268 29.0869C33.4463 28.6115 33.5129 28.08 33.4175 27.5654C33.1887 26.5131 31.7777 25.8918 30.9134 25.3847Z" fill="#00D95F"/>
<path d="M0 45L3.22865 33.0058C0.624824 28.3334 -0.202436 22.8812 0.898669 17.6495C1.99977 12.4179 4.95539 7.75778 9.22314 4.52434C13.4909 1.2909 18.7845 -0.298978 24.1327 0.0464506C29.4808 0.391879 34.5246 2.64944 38.3387 6.40488C42.1527 10.1603 44.4811 15.1617 44.8966 20.4913C45.3121 25.8209 43.7868 31.1212 40.6006 35.4196C37.4144 39.718 32.7811 42.7261 27.5508 43.892C22.3205 45.0579 16.8441 44.3034 12.1265 41.7669L0 45ZM12.7112 37.2786L13.4612 37.7223C16.8782 39.7425 20.8693 40.5785 24.8124 40.1C28.7555 39.6215 32.4291 37.8554 35.2609 35.0769C38.0926 32.2985 39.9234 28.6637 40.4678 24.739C41.0123 20.8143 40.2399 16.8202 38.271 13.3791C36.302 9.93802 33.2472 7.24324 29.5825 5.7147C25.9179 4.18617 21.8492 3.90974 18.0106 4.9285C14.1719 5.94727 10.779 8.20399 8.36047 11.347C5.94194 14.49 4.63369 18.3427 4.63959 22.3048C4.63638 25.59 5.54725 28.8116 7.27081 31.6111L7.74113 32.3845L5.93613 39.079L12.7112 37.2786Z" fill="#00D95F"/>
</g>
<defs>
<clipPath id="clip0_142_3834">
<rect width="45" height="45" fill="white"/>
</clipPath>
</defs>
</svg>
