<svg width="50" height="50" viewBox="0 0 50 50" fill="none" xmlns="http://www.w3.org/2000/svg">
<path d="M16.8071 24.9999C16.8071 20.4762 20.4755 16.808 25.0019 16.808C29.5283 16.808 33.1986 20.4762 33.1986 24.9999C33.1986 29.5236 29.5283 33.1917 25.0019 33.1917C20.4755 33.1917 16.8071 29.5236 16.8071 24.9999ZM12.3761 24.9999C12.3761 31.9689 18.0286 37.6181 25.0019 37.6181C31.9751 37.6181 37.6277 31.9689 37.6277 24.9999C37.6277 18.0308 31.9751 12.3816 25.0019 12.3816C18.0286 12.3816 12.3761 18.0308 12.3761 24.9999ZM35.1769 11.8813C35.1767 12.4645 35.3495 13.0347 35.6735 13.5198C35.9975 14.0049 36.4582 14.383 36.9973 14.6064C37.5363 14.8298 38.1296 14.8884 38.702 14.7749C39.2744 14.6613 39.8003 14.3807 40.2131 13.9685C40.6259 13.5562 40.9071 13.0309 41.0212 12.4589C41.1353 11.887 41.0771 11.294 40.854 10.7551C40.6309 10.2162 40.2529 9.75551 39.7678 9.43129C39.2827 9.10708 38.7123 8.9339 38.1287 8.93367H38.1275C37.3453 8.93403 36.5952 9.24467 36.0419 9.79735C35.4887 10.35 35.1776 11.0996 35.1769 11.8813V11.8813ZM15.0682 45.0022C12.6709 44.8931 11.368 44.494 10.5021 44.1568C9.35408 43.7102 8.53499 43.1782 7.67381 42.3187C6.81263 41.4592 6.27956 40.6414 5.83461 39.4941C5.49706 38.6292 5.09775 37.3266 4.98877 34.9307C4.86957 32.3405 4.84576 31.5624 4.84576 25.0001C4.84576 18.4377 4.87153 17.6618 4.98877 15.0694C5.09794 12.6736 5.50021 11.3735 5.83461 10.506C6.28152 9.35869 6.81381 8.5401 7.67381 7.67943C8.53381 6.81877 9.35211 6.28601 10.5021 5.84133C11.3676 5.50399 12.6709 5.10491 15.0682 4.996C17.66 4.87687 18.4386 4.85308 25.0019 4.85308C31.5652 4.85308 32.3445 4.87883 34.9385 4.996C37.3358 5.10511 38.6366 5.50713 39.5047 5.84133C40.6526 6.28601 41.4717 6.81995 42.3329 7.67943C43.1941 8.53892 43.7252 9.35869 44.1721 10.506C44.5097 11.371 44.909 12.6736 45.0179 15.0694C45.1372 17.6618 45.161 18.4377 45.161 25.0001C45.161 31.5624 45.1372 32.3383 45.0179 34.9307C44.9088 37.3266 44.5075 38.6288 44.1721 39.4941C43.7252 40.6414 43.1929 41.46 42.3329 42.3187C41.4729 43.1774 40.6526 43.7102 39.5047 44.1568C38.6391 44.4942 37.3358 44.8932 34.9385 45.0022C32.3467 45.1213 31.5681 45.1451 25.0019 45.1451C18.4356 45.1451 17.6592 45.1213 15.0682 45.0022V45.0022ZM14.8646 0.575118C12.247 0.69425 10.4584 1.10905 8.89634 1.71651C7.27863 2.34382 5.90916 3.18542 4.54067 4.55092C3.17219 5.91643 2.33225 7.28724 1.70456 8.90398C1.09674 10.4661 0.681685 12.2527 0.562481 14.8687C0.44131 17.4888 0.413574 18.3265 0.413574 24.9999C0.413574 31.6733 0.44131 32.5109 0.562481 35.1311C0.681685 37.7473 1.09674 39.5337 1.70456 41.0957C2.33225 42.7115 3.17238 44.0839 4.54067 45.4488C5.90896 46.8137 7.27863 47.6541 8.89634 48.2832C10.4613 48.8907 12.247 49.3055 14.8646 49.4246C17.4877 49.5437 18.3245 49.5734 25.0019 49.5734C31.6793 49.5734 32.5174 49.5457 35.1391 49.4246C37.7569 49.3055 39.5444 48.8907 41.1074 48.2832C42.7242 47.6541 44.0946 46.8143 45.4631 45.4488C46.8316 44.0833 47.6697 42.7115 48.2992 41.0957C48.907 39.5337 49.324 37.7471 49.4413 35.1311C49.5605 32.509 49.5882 31.6733 49.5882 24.9999C49.5882 18.3265 49.5605 17.4888 49.4413 14.8687C49.3221 12.2525 48.907 10.4651 48.2992 8.90398C47.6697 7.28822 46.8294 5.91859 45.4631 4.55092C44.0968 3.18326 42.7242 2.34382 41.1094 1.71651C39.5444 1.10905 37.7567 0.692284 35.1411 0.575118C32.5194 0.455985 31.6812 0.4263 25.0038 0.4263C18.3265 0.4263 17.4877 0.454019 14.8646 0.575118Z" fill="url(#paint0_radial_140_3906)"/>
<path d="M16.8071 24.9999C16.8071 20.4762 20.4755 16.808 25.0019 16.808C29.5283 16.808 33.1986 20.4762 33.1986 24.9999C33.1986 29.5236 29.5283 33.1917 25.0019 33.1917C20.4755 33.1917 16.8071 29.5236 16.8071 24.9999ZM12.3761 24.9999C12.3761 31.9689 18.0286 37.6181 25.0019 37.6181C31.9751 37.6181 37.6277 31.9689 37.6277 24.9999C37.6277 18.0308 31.9751 12.3816 25.0019 12.3816C18.0286 12.3816 12.3761 18.0308 12.3761 24.9999ZM35.1769 11.8813C35.1767 12.4645 35.3495 13.0347 35.6735 13.5198C35.9975 14.0049 36.4582 14.383 36.9973 14.6064C37.5363 14.8298 38.1296 14.8884 38.702 14.7749C39.2744 14.6613 39.8003 14.3807 40.2131 13.9685C40.6259 13.5562 40.9071 13.0309 41.0212 12.4589C41.1353 11.887 41.0771 11.294 40.854 10.7551C40.6309 10.2162 40.2529 9.75551 39.7678 9.43129C39.2827 9.10708 38.7123 8.9339 38.1287 8.93367H38.1275C37.3453 8.93403 36.5952 9.24467 36.0419 9.79735C35.4887 10.35 35.1776 11.0996 35.1769 11.8813V11.8813ZM15.0682 45.0022C12.6709 44.8931 11.368 44.494 10.5021 44.1568C9.35408 43.7102 8.53499 43.1782 7.67381 42.3187C6.81263 41.4592 6.27956 40.6414 5.83461 39.4941C5.49706 38.6292 5.09775 37.3266 4.98877 34.9307C4.86957 32.3405 4.84576 31.5624 4.84576 25.0001C4.84576 18.4377 4.87153 17.6618 4.98877 15.0694C5.09794 12.6736 5.50021 11.3735 5.83461 10.506C6.28152 9.35869 6.81381 8.5401 7.67381 7.67943C8.53381 6.81877 9.35211 6.28601 10.5021 5.84133C11.3676 5.50399 12.6709 5.10491 15.0682 4.996C17.66 4.87687 18.4386 4.85308 25.0019 4.85308C31.5652 4.85308 32.3445 4.87883 34.9385 4.996C37.3358 5.10511 38.6366 5.50713 39.5047 5.84133C40.6526 6.28601 41.4717 6.81995 42.3329 7.67943C43.1941 8.53892 43.7252 9.35869 44.1721 10.506C44.5097 11.371 44.909 12.6736 45.0179 15.0694C45.1372 17.6618 45.161 18.4377 45.161 25.0001C45.161 31.5624 45.1372 32.3383 45.0179 34.9307C44.9088 37.3266 44.5075 38.6288 44.1721 39.4941C43.7252 40.6414 43.1929 41.46 42.3329 42.3187C41.4729 43.1774 40.6526 43.7102 39.5047 44.1568C38.6391 44.4942 37.3358 44.8932 34.9385 45.0022C32.3467 45.1213 31.5681 45.1451 25.0019 45.1451C18.4356 45.1451 17.6592 45.1213 15.0682 45.0022V45.0022ZM14.8646 0.575118C12.247 0.69425 10.4584 1.10905 8.89634 1.71651C7.27863 2.34382 5.90916 3.18542 4.54067 4.55092C3.17219 5.91643 2.33225 7.28724 1.70456 8.90398C1.09674 10.4661 0.681685 12.2527 0.562481 14.8687C0.44131 17.4888 0.413574 18.3265 0.413574 24.9999C0.413574 31.6733 0.44131 32.5109 0.562481 35.1311C0.681685 37.7473 1.09674 39.5337 1.70456 41.0957C2.33225 42.7115 3.17238 44.0839 4.54067 45.4488C5.90896 46.8137 7.27863 47.6541 8.89634 48.2832C10.4613 48.8907 12.247 49.3055 14.8646 49.4246C17.4877 49.5437 18.3245 49.5734 25.0019 49.5734C31.6793 49.5734 32.5174 49.5457 35.1391 49.4246C37.7569 49.3055 39.5444 48.8907 41.1074 48.2832C42.7242 47.6541 44.0946 46.8143 45.4631 45.4488C46.8316 44.0833 47.6697 42.7115 48.2992 41.0957C48.907 39.5337 49.324 37.7471 49.4413 35.1311C49.5605 32.509 49.5882 31.6733 49.5882 24.9999C49.5882 18.3265 49.5605 17.4888 49.4413 14.8687C49.3221 12.2525 48.907 10.4651 48.2992 8.90398C47.6697 7.28822 46.8294 5.91859 45.4631 4.55092C44.0968 3.18326 42.7242 2.34382 41.1094 1.71651C39.5444 1.10905 37.7567 0.692284 35.1411 0.575118C32.5194 0.455985 31.6812 0.4263 25.0038 0.4263C18.3265 0.4263 17.4877 0.454019 14.8646 0.575118Z" fill="url(#paint1_radial_140_3906)"/>
<defs>
<radialGradient id="paint0_radial_140_3906" cx="0" cy="0" r="1" gradientUnits="userSpaceOnUse" gradientTransform="translate(6.94698 49.8056) scale(64.1959 64.1575)">
<stop offset="0.09" stop-color="#FA8F21"/>
<stop offset="0.78" stop-color="#D82D7E"/>
</radialGradient>
<radialGradient id="paint1_radial_140_3906" cx="0" cy="0" r="1" gradientUnits="userSpaceOnUse" gradientTransform="translate(30.237 52.0074) scale(50.5953 50.5649)">
<stop offset="0.64" stop-color="#8C3AAA" stop-opacity="0"/>
<stop offset="1" stop-color="#8C3AAA"/>
</radialGradient>
</defs>
</svg>
