<svg width="26" height="26" viewBox="0 0 26 26" fill="none" xmlns="http://www.w3.org/2000/svg">
  <path d="M22.7493 20.7853V17.8497C22.7613 17.3698 22.5961 16.9023 22.2851 16.536C21.4083 15.5032 18.4009 14.8425 17.2088 15.0962C16.2796 15.294 15.6294 16.2271 14.9938 16.8614C12.5392 15.4684 10.5068 13.44 9.11104 10.9902C9.74665 10.3559 10.6815 9.70706 10.8797 8.77964C11.1336 7.59175 10.4738 4.60362 9.44809 3.72324C9.08731 3.41359 8.62601 3.24542 8.15019 3.25009H5.20878C4.08804 3.25115 3.15561 4.25636 3.25765 5.38328C3.25 15.0962 10.8333 22.75 20.6119 22.7424C21.7449 22.8445 22.7539 21.9075 22.7493 20.7853Z" stroke="black" stroke-width="1.5" stroke-linecap="round" stroke-linejoin="round"/>
</svg>