<svg width="22" height="22" viewBox="0 0 22 22" fill="none" xmlns="http://www.w3.org/2000/svg">
  <path d="M20.7493 18.7853V15.8497C20.7613 15.3698 20.5961 14.9023 20.2851 14.536C19.4083 13.5032 16.4009 12.8425 15.2088 13.0962C14.2796 13.294 13.6294 14.2271 12.9938 14.8614C10.5392 13.4684 8.50679 11.44 7.11104 8.99025C7.74665 8.3559 8.68153 7.70706 8.87971 6.77964C9.13356 5.59175 8.47381 2.60362 7.44809 1.72324C7.08731 1.41359 6.62601 1.24542 6.15019 1.25009H3.20878C2.08804 1.25115 1.15561 2.25636 1.25765 3.38328C1.25 13.0962 8.83333 20.75 18.6119 20.7424C19.7449 20.8445 20.7539 19.9075 20.7493 18.7853Z" stroke="white" stroke-width="1.5" stroke-linecap="round" stroke-linejoin="round"/>
</svg>
